<svg xmlns="http://www.w3.org/2000/svg" width="482" height="168" viewBox="0 0 482 168" font-family="-apple-system,Segoe UI,Helvetica,Arial,sans-serif">
<rect width="482" height="168" rx="10" fill="#0d1117"/>
<text x="32" y="18" fill="#e6edf3" font-size="12" font-weight="600">13 practice days in 2026</text>
<text x="46" y="28" fill="#7d8590" font-size="9">Jan</text>
<text x="102" y="28" fill="#7d8590" font-size="9">Feb</text>
<text x="158" y="28" fill="#7d8590" font-size="9">Mar</text>
<text x="228" y="28" fill="#7d8590" font-size="9">Apr</text>
<text x="284" y="28" fill="#7d8590" font-size="9">May</text>
<text x="354" y="28" fill="#7d8590" font-size="9">Jun</text>
<text x="410" y="28" fill="#7d8590" font-size="9">Jul</text>
<text x="26" y="58" fill="#7d8590" font-size="9" text-anchor="end">Mon</text>
<text x="26" y="86" fill="#7d8590" font-size="9" text-anchor="end">Wed</text>
<text x="26" y="114" fill="#7d8590" font-size="9" text-anchor="end">Fri</text>
<rect x="32" y="90" width="11" height="11" rx="2" fill="#21262d"/>
<rect x="32" y="104" width="11" height="11" rx="2" fill="#21262d"/>
<rect x="32" y="118" width="11" height="11" rx="2" fill="#f78166" stroke="#e3b341" stroke-width="1.6"/>
<rect x="46" y="34" width="11" height="11" rx="2" fill="#21262d"/>
<rect x="46" y="48" width="11" height="11" rx="2" fill="#21262d"/>
<rect x="46" y="62" width="11" height="11" rx="2" fill="#21262d"/>
<rect x="46" y="76" width="11" height="11" rx="2" fill="#21262d"/>
<rect x="46" y="90" width="11" height="11" rx="2" fill="#21262d"/>
<rect x="46" y="104" width="11" height="11" rx="2" fill="#21262d"/>
<rect x="46" y="118" width="11" height="11" rx="2" fill="#f78166" stroke="#e3b341" stroke-width="1.6"/>
<rect x="60" y="34" width="11" height="11" rx="2" fill="#21262d"/>
<rect x="60" y="48" width="11" height="11" rx="2" fill="#21262d"/>
<rect x="60" y="62" width="11" height="11" rx="2" fill="#21262d"/>
<rect x="60" y="76" width="11" height="11" rx="2" fill="#21262d"/>
<rect x="60" y="90" width="11" height="11" rx="2" fill="#21262d"/>
<rect x="60" y="104" width="11" height="11" rx="2" fill="#21262d"/>
<rect x="60" y="118" width="11" height="11" rx="2" fill="#21262d"/>
<rect x="74" y="34" width="11" height="11" rx="2" fill="#21262d"/>
<rect x="74" y="48" width="11" height="11" rx="2" fill="#21262d"/>
<rect x="74" y="62" width="11" height="11" rx="2" fill="#21262d"/>
<rect x="74" y="76" width="11" height="11" rx="2" fill="#21262d"/>
<rect x="74" y="90" width="11" height="11" rx="2" fill="#21262d"/>
<rect x="74" y="104" width="11" height="11" rx="2" fill="#21262d"/>
<rect x="74" y="118" width="11" height="11" rx="2" fill="#21262d"/>
<rect x="88" y="34" width="11" height="11" rx="2" fill="#21262d"/>
<rect x="88" y="48" width="11" height="11" rx="2" fill="#21262d"/>
<rect x="88" y="62" width="11" height="11" rx="2" fill="#21262d"/>
<rect x="88" y="76" width="11" height="11" rx="2" fill="#21262d"/>
<rect x="88" y="90" width="11" height="11" rx="2" fill="#21262d"/>
<rect x="88" y="104" width="11" height="11" rx="2" fill="#21262d"/>
<rect x="88" y="118" width="11" height="11" rx="2" fill="#21262d"/>
<rect x="102" y="34" width="11" height="11" rx="2" fill="#21262d"/>
<rect x="102" y="48" width="11" height="11" rx="2" fill="#21262d"/>
<rect x="102" y="62" width="11" height="11" rx="2" fill="#21262d"/>
<rect x="102" y="76" width="11" height="11" rx="2" fill="#21262d"/>
<rect x="102" y="90" width="11" height="11" rx="2" fill="#21262d"/>
<rect x="102" y="104" width="11" height="11" rx="2" fill="#21262d"/>
<rect x="102" y="118" width="11" height="11" rx="2" fill="#21262d"/>
<rect x="116" y="34" width="11" height="11" rx="2" fill="#21262d"/>
<rect x="116" y="48" width="11" height="11" rx="2" fill="#21262d"/>
<rect x="116" y="62" width="11" height="11" rx="2" fill="#21262d"/>
<rect x="116" y="76" width="11" height="11" rx="2" fill="#21262d"/>
<rect x="116" y="90" width="11" height="11" rx="2" fill="#21262d"/>
<rect x="116" y="104" width="11" height="11" rx="2" fill="#21262d"/>
<rect x="116" y="118" width="11" height="11" rx="2" fill="#21262d"/>
<rect x="130" y="34" width="11" height="11" rx="2" fill="#21262d"/>
<rect x="130" y="48" width="11" height="11" rx="2" fill="#21262d"/>
<rect x="130" y="62" width="11" height="11" rx="2" fill="#21262d"/>
<rect x="130" y="76" width="11" height="11" rx="2" fill="#21262d"/>
<rect x="130" y="90" width="11" height="11" rx="2" fill="#21262d"/>
<rect x="130" y="104" width="11" height="11" rx="2" fill="#21262d"/>
<rect x="130" y="118" width="11" height="11" rx="2" fill="#21262d"/>
<rect x="144" y="34" width="11" height="11" rx="2" fill="#21262d"/>
<rect x="144" y="48" width="11" height="11" rx="2" fill="#21262d"/>
<rect x="144" y="62" width="11" height="11" rx="2" fill="#21262d"/>
<rect x="144" y="76" width="11" height="11" rx="2" fill="#21262d"/>
<rect x="144" y="90" width="11" height="11" rx="2" fill="#21262d"/>
<rect x="144" y="104" width="11" height="11" rx="2" fill="#21262d"/>
<rect x="144" y="118" width="11" height="11" rx="2" fill="#21262d"/>
<rect x="158" y="34" width="11" height="11" rx="2" fill="#21262d"/>
<rect x="158" y="48" width="11" height="11" rx="2" fill="#21262d"/>
<rect x="158" y="62" width="11" height="11" rx="2" fill="#21262d"/>
<rect x="158" y="76" width="11" height="11" rx="2" fill="#21262d"/>
<rect x="158" y="90" width="11" height="11" rx="2" fill="#21262d"/>
<rect x="158" y="104" width="11" height="11" rx="2" fill="#21262d"/>
<rect x="158" y="118" width="11" height="11" rx="2" fill="#21262d"/>
<rect x="172" y="34" width="11" height="11" rx="2" fill="#21262d"/>
<rect x="172" y="48" width="11" height="11" rx="2" fill="#21262d"/>
<rect x="172" y="62" width="11" height="11" rx="2" fill="#21262d"/>
<rect x="172" y="76" width="11" height="11" rx="2" fill="#21262d"/>
<rect x="172" y="90" width="11" height="11" rx="2" fill="#21262d"/>
<rect x="172" y="104" width="11" height="11" rx="2" fill="#21262d"/>
<rect x="172" y="118" width="11" height="11" rx="2" fill="#f78166" stroke="#e3b341" stroke-width="1.6"/>
<rect x="186" y="34" width="11" height="11" rx="2" fill="#21262d"/>
<rect x="186" y="48" width="11" height="11" rx="2" fill="#21262d"/>
<rect x="186" y="62" width="11" height="11" rx="2" fill="#21262d"/>
<rect x="186" y="76" width="11" height="11" rx="2" fill="#21262d"/>
<rect x="186" y="90" width="11" height="11" rx="2" fill="#21262d"/>
<rect x="186" y="104" width="11" height="11" rx="2" fill="#21262d"/>
<rect x="186" y="118" width="11" height="11" rx="2" fill="#21262d"/>
<rect x="200" y="34" width="11" height="11" rx="2" fill="#21262d"/>
<rect x="200" y="48" width="11" height="11" rx="2" fill="#21262d"/>
<rect x="200" y="62" width="11" height="11" rx="2" fill="#21262d"/>
<rect x="200" y="76" width="11" height="11" rx="2" fill="#21262d"/>
<rect x="200" y="90" width="11" height="11" rx="2" fill="#21262d"/>
<rect x="200" y="104" width="11" height="11" rx="2" fill="#21262d"/>
<rect x="200" y="118" width="11" height="11" rx="2" fill="#f78166" stroke="#e3b341" stroke-width="1.6"/>
<rect x="214" y="34" width="11" height="11" rx="2" fill="#21262d"/>
<rect x="214" y="48" width="11" height="11" rx="2" fill="#21262d"/>
<rect x="214" y="62" width="11" height="11" rx="2" fill="#21262d"/>
<rect x="214" y="76" width="11" height="11" rx="2" fill="#21262d"/>
<rect x="214" y="90" width="11" height="11" rx="2" fill="#21262d"/>
<rect x="214" y="104" width="11" height="11" rx="2" fill="#21262d"/>
<rect x="214" y="118" width="11" height="11" rx="2" fill="#21262d"/>
<rect x="228" y="34" width="11" height="11" rx="2" fill="#21262d"/>
<rect x="228" y="48" width="11" height="11" rx="2" fill="#21262d"/>
<rect x="228" y="62" width="11" height="11" rx="2" fill="#21262d"/>
<rect x="228" y="76" width="11" height="11" rx="2" fill="#21262d"/>
<rect x="228" y="90" width="11" height="11" rx="2" fill="#21262d"/>
<rect x="228" y="104" width="11" height="11" rx="2" fill="#21262d"/>
<rect x="228" y="118" width="11" height="11" rx="2" fill="#f78166" stroke="#e3b341" stroke-width="1.6"/>
<rect x="242" y="34" width="11" height="11" rx="2" fill="#21262d"/>
<rect x="242" y="48" width="11" height="11" rx="2" fill="#21262d"/>
<rect x="242" y="62" width="11" height="11" rx="2" fill="#21262d"/>
<rect x="242" y="76" width="11" height="11" rx="2" fill="#21262d"/>
<rect x="242" y="90" width="11" height="11" rx="2" fill="#21262d"/>
<rect x="242" y="104" width="11" height="11" rx="2" fill="#21262d"/>
<rect x="242" y="118" width="11" height="11" rx="2" fill="#21262d"/>
<rect x="256" y="34" width="11" height="11" rx="2" fill="#21262d"/>
<rect x="256" y="48" width="11" height="11" rx="2" fill="#21262d"/>
<rect x="256" y="62" width="11" height="11" rx="2" fill="#21262d"/>
<rect x="256" y="76" width="11" height="11" rx="2" fill="#21262d"/>
<rect x="256" y="90" width="11" height="11" rx="2" fill="#21262d"/>
<rect x="256" y="104" width="11" height="11" rx="2" fill="#21262d"/>
<rect x="256" y="118" width="11" height="11" rx="2" fill="#2f81f7" stroke="#e3b341" stroke-width="1.6"/>
<rect x="270" y="34" width="11" height="11" rx="2" fill="#21262d"/>
<rect x="270" y="48" width="11" height="11" rx="2" fill="#21262d"/>
<rect x="270" y="62" width="11" height="11" rx="2" fill="#21262d"/>
<rect x="270" y="76" width="11" height="11" rx="2" fill="#21262d"/>
<rect x="270" y="90" width="11" height="11" rx="2" fill="#21262d"/>
<rect x="270" y="104" width="11" height="11" rx="2" fill="#21262d"/>
<rect x="270" y="118" width="11" height="11" rx="2" fill="#21262d"/>
<rect x="284" y="34" width="11" height="11" rx="2" fill="#21262d"/>
<rect x="284" y="48" width="11" height="11" rx="2" fill="#21262d"/>
<rect x="284" y="62" width="11" height="11" rx="2" fill="#21262d"/>
<rect x="284" y="76" width="11" height="11" rx="2" fill="#21262d"/>
<rect x="284" y="90" width="11" height="11" rx="2" fill="#21262d"/>
<rect x="284" y="104" width="11" height="11" rx="2" fill="#21262d"/>
<rect x="284" y="118" width="11" height="11" rx="2" fill="#2f81f7" stroke="#e3b341" stroke-width="1.6"/>
<rect x="298" y="34" width="11" height="11" rx="2" fill="#21262d"/>
<rect x="298" y="48" width="11" height="11" rx="2" fill="#21262d"/>
<rect x="298" y="62" width="11" height="11" rx="2" fill="#21262d"/>
<rect x="298" y="76" width="11" height="11" rx="2" fill="#21262d"/>
<rect x="298" y="90" width="11" height="11" rx="2" fill="#21262d"/>
<rect x="298" y="104" width="11" height="11" rx="2" fill="#21262d"/>
<rect x="298" y="118" width="11" height="11" rx="2" fill="#21262d"/>
<rect x="312" y="34" width="11" height="11" rx="2" fill="#21262d"/>
<rect x="312" y="48" width="11" height="11" rx="2" fill="#21262d"/>
<rect x="312" y="62" width="11" height="11" rx="2" fill="#21262d"/>
<rect x="312" y="76" width="11" height="11" rx="2" fill="#2f81f7"/>
<rect x="312" y="90" width="11" height="11" rx="2" fill="#bc8cff"/>
<rect x="312" y="104" width="11" height="11" rx="2" fill="#f78166"/>
<rect x="312" y="118" width="11" height="11" rx="2" fill="#2f81f7" stroke="#e3b341" stroke-width="1.6"/>
<rect x="326" y="34" width="11" height="11" rx="2" fill="#2f81f7"/>
<rect x="326" y="48" width="11" height="11" rx="2" fill="#2f81f7"/>
<rect x="326" y="62" width="11" height="11" rx="2" fill="#21262d"/>
<rect x="326" y="76" width="11" height="11" rx="2" fill="#21262d"/>
<rect x="326" y="90" width="11" height="11" rx="2" fill="#2f81f7"/>
<rect x="326" y="104" width="11" height="11" rx="2" fill="#21262d"/>
<rect x="326" y="118" width="11" height="11" rx="2" fill="#21262d"/>
<rect x="340" y="34" width="11" height="11" rx="2" fill="#21262d"/>
<rect x="340" y="48" width="11" height="11" rx="2" fill="#21262d"/>
<rect x="340" y="62" width="11" height="11" rx="2" fill="#21262d"/>
<rect x="340" y="76" width="11" height="11" rx="2" fill="#21262d"/>
<rect x="340" y="90" width="11" height="11" rx="2" fill="#21262d"/>
<rect x="340" y="104" width="11" height="11" rx="2" fill="#21262d"/>
<rect x="340" y="118" width="11" height="11" rx="2" fill="#2f81f7" stroke="#e3b341" stroke-width="1.6"/>
<rect x="354" y="34" width="11" height="11" rx="2" fill="#21262d"/>
<rect x="354" y="48" width="11" height="11" rx="2" fill="#21262d"/>
<rect x="354" y="62" width="11" height="11" rx="2" fill="#21262d"/>
<rect x="354" y="76" width="11" height="11" rx="2" fill="#21262d"/>
<rect x="354" y="90" width="11" height="11" rx="2" fill="#21262d"/>
<rect x="354" y="104" width="11" height="11" rx="2" fill="#2f81f7"/>
<rect x="354" y="118" width="11" height="11" rx="2" fill="#21262d"/>
<rect x="368" y="34" width="11" height="11" rx="2" fill="#21262d"/>
<rect x="368" y="48" width="11" height="11" rx="2" fill="#21262d"/>
<rect x="368" y="62" width="11" height="11" rx="2" fill="#21262d"/>
<rect x="368" y="76" width="11" height="11" rx="2" fill="#2f81f7"/>
<rect x="368" y="90" width="11" height="11" rx="2" fill="#21262d"/>
<rect x="368" y="104" width="11" height="11" rx="2" fill="#21262d"/>
<rect x="368" y="118" width="11" height="11" rx="2" fill="#21262d"/>
<rect x="382" y="34" width="11" height="11" rx="2" fill="#2f81f7" stroke="#e3b341" stroke-width="1.6"/>
<rect x="382" y="48" width="11" height="11" rx="2" fill="#21262d"/>
<rect x="382" y="62" width="11" height="11" rx="2" fill="#21262d"/>
<rect x="382" y="76" width="11" height="11" rx="2" fill="#21262d"/>
<rect x="382" y="90" width="11" height="11" rx="2" fill="#21262d"/>
<rect x="382" y="104" width="11" height="11" rx="2" fill="#21262d"/>
<rect x="382" y="118" width="11" height="11" rx="2" fill="#21262d"/>
<rect x="396" y="34" width="11" height="11" rx="2" fill="#21262d"/>
<rect x="396" y="48" width="11" height="11" rx="2" fill="#21262d"/>
<rect x="396" y="62" width="11" height="11" rx="2" fill="#21262d"/>
<rect x="396" y="76" width="11" height="11" rx="2" fill="#21262d"/>
<rect x="396" y="90" width="11" height="11" rx="2" fill="#21262d"/>
<rect x="396" y="104" width="11" height="11" rx="2" fill="#21262d"/>
<rect x="396" y="118" width="11" height="11" rx="2" fill="#21262d"/>
<rect x="410" y="34" width="11" height="11" rx="2" fill="#21262d"/>
<rect x="410" y="48" width="11" height="11" rx="2" fill="#21262d"/>
<rect x="410" y="62" width="11" height="11" rx="2" fill="#21262d"/>
<rect x="410" y="76" width="11" height="11" rx="2" fill="#21262d"/>
<rect x="410" y="90" width="11" height="11" rx="2" fill="#21262d"/>
<rect x="410" y="104" width="11" height="11" rx="2" fill="#21262d"/>
<rect x="410" y="118" width="11" height="11" rx="2" fill="#bc8cff" stroke="#e3b341" stroke-width="1.6"/>
<rect x="424" y="34" width="11" height="11" rx="2" fill="#3fb950"/>
<rect x="424" y="48" width="11" height="11" rx="2" fill="#21262d"/>
<rect x="424" y="62" width="11" height="11" rx="2" fill="#2f81f7"/>
<rect x="424" y="76" width="11" height="11" rx="2" fill="#21262d"/>
<rect x="424" y="90" width="11" height="11" rx="2" fill="#21262d"/>
<rect x="424" y="104" width="11" height="11" rx="2" fill="#3fb950"/>
<rect x="424" y="118" width="11" height="11" rx="2" fill="#21262d"/>
<rect x="438" y="34" width="11" height="11" rx="2" fill="#21262d"/>
<rect x="438" y="48" width="11" height="11" rx="2" fill="#21262d"/>
<rect x="438" y="62" width="11" height="11" rx="2" fill="#21262d"/>
<rect x="438" y="76" width="11" height="11" rx="2" fill="#21262d"/>
<rect x="438" y="90" width="11" height="11" rx="2" fill="#21262d"/>
<rect x="438" y="104" width="11" height="11" rx="2" fill="#21262d"/>
<rect x="438" y="118" width="11" height="11" rx="2" fill="#bc8cff" stroke="#e3b341" stroke-width="1.6"/>
<rect x="452" y="34" width="11" height="11" rx="2" fill="#21262d"/>
<rect x="32" y="148" width="10" height="10" rx="2" fill="#2f81f7"/>
<text x="46" y="157" fill="#7d8590" font-size="9">Classical</text>
<rect x="114" y="148" width="10" height="10" rx="2" fill="#3fb950"/>
<text x="128" y="157" fill="#7d8590" font-size="9">Acoustic</text>
<rect x="190" y="148" width="10" height="10" rx="2" fill="#f78166"/>
<text x="204" y="157" fill="#7d8590" font-size="9">Electric</text>
<rect x="266" y="148" width="10" height="10" rx="2" fill="#bc8cff"/>
<text x="280" y="157" fill="#7d8590" font-size="9">Multiple</text>
<rect x="342" y="148" width="10" height="10" rx="2" fill="#21262d" stroke="#e3b341" stroke-width="1.6"/>
<text x="356" y="157" fill="#7d8590" font-size="9">Lesson</text>
</svg>
